<svg xmlns="http://www.w3.org/2000/svg" width="920" height="240" viewBox="0 0 920 240" role="img" aria-labelledby="title desc">
  <title id="title">OwnWeb architecture</title>
  <desc id="desc">Browser sends content to the extension, which sends it to the daemon. The daemon uses AI agents and a content store.</desc>
  <defs>
    <marker id="arrow" viewBox="0 0 10 10" refX="8" refY="5" markerWidth="7" markerHeight="7" orient="auto-start-reverse">
      <path d="M 0 0 L 10 5 L 0 10 z" fill="#586174"/>
    </marker>
    <style>
      .box {
        fill: #ffffff;
        stroke: #c9d1dc;
        stroke-width: 1.5;
      }
      .label {
        fill: #172033;
        font: 600 18px system-ui, -apple-system, BlinkMacSystemFont, "Segoe UI", sans-serif;
        text-anchor: middle;
        dominant-baseline: middle;
      }
      .arrow {
        fill: none;
        stroke: #586174;
        stroke-width: 2;
        marker-end: url(#arrow);
      }
    </style>
  </defs>

  <rect class="box" x="30" y="86" width="150" height="68" rx="10"/>
  <text class="label" x="105" y="120">Browser</text>

  <path class="arrow" d="M 190 120 H 270"/>

  <rect class="box" x="280" y="86" width="150" height="68" rx="10"/>
  <text class="label" x="355" y="120">Extension</text>

  <path class="arrow" d="M 440 120 H 520"/>

  <rect class="box" x="530" y="86" width="150" height="68" rx="10"/>
  <text class="label" x="605" y="120">Daemon</text>

  <path class="arrow" d="M 690 108 C 730 108 730 58 770 58"/>
  <rect class="box" x="780" y="24" width="120" height="68" rx="10"/>
  <text class="label" x="840" y="58">AI Agents</text>

  <path class="arrow" d="M 690 132 C 730 132 730 182 770 182"/>
  <rect class="box" x="780" y="148" width="120" height="68" rx="10"/>
  <text class="label" x="840" y="174">
    <tspan x="840" dy="0">Content</tspan>
    <tspan x="840" dy="22">Store</tspan>
  </text>
</svg>
